<svg xmlns="http://www.w3.org/2000/svg" width="400" height="120" viewBox="0 0 400 120">
  <defs>
    <linearGradient id="g" x1="0%" y1="0%" x2="100%" y2="100%">
      <stop offset="0%" style="stop-color:#7c3aed"/>
      <stop offset="100%" style="stop-color:#c026d3"/>
    </linearGradient>
  </defs>
  <!-- Gridfinity-style grid icon -->
  <g transform="translate(10,20)">
    <rect x="0" y="0" width="80" height="80" rx="8" fill="url(#g)"/>
    <g stroke="#fff" stroke-width="2" fill="none" opacity="0.4">
      <line x1="26.7" y1="0" x2="26.7" y2="80"/>
      <line x1="53.3" y1="0" x2="53.3" y2="80"/>
      <line x1="0" y1="26.7" x2="80" y2="26.7"/>
      <line x1="0" y1="53.3" x2="80" y2="53.3"/>
    </g>
    <!-- Tool silhouette inside -->
    <path d="M 15 55 L 15 25 Q 15 18 22 18 L 40 18 Q 47 18 47 25 L 47 30 L 55 30 L 55 35 L 47 35 L 47 55 Q 47 62 40 62 L 22 62 Q 15 62 15 55 Z"
          fill="#fff" opacity="0.9"/>
    <circle cx="58" cy="48" r="8" fill="url(#g)" stroke="#fff" stroke-width="2"/>
  </g>
  <text x="105" y="55" font-family="system-ui,-apple-system,sans-serif" font-size="36" font-weight="bold" fill="#e4e4e7">Trace<tspan fill="#7c3aed">finity</tspan></text>
  <text x="105" y="80" font-family="system-ui,-apple-system,sans-serif" font-size="14" fill="#71717a">Photo → Gridfinity in seconds</text>
</svg>